<svg viewBox="0 0 1200 630" xmlns="http://www.w3.org/2000/svg" width="1200" height="630">
  <defs>
    <linearGradient id="skyGrad" x1="0%" y1="0%" x2="100%" y2="100%">
      <stop offset="0%" style="stop-color:#0a1628;stop-opacity:1" />
      <stop offset="45%" style="stop-color:#0d2347;stop-opacity:1" />
      <stop offset="100%" style="stop-color:#1a3a6b;stop-opacity:1" />
    </linearGradient>
    <radialGradient id="sunGlow" cx="50%" cy="75%" r="50%">
      <stop offset="0%" style="stop-color:#f5c842;stop-opacity:0.35" />
      <stop offset="40%" style="stop-color:#e8a020;stop-opacity:0.15" />
      <stop offset="100%" style="stop-color:#0a1628;stop-opacity:0" />
    </radialGradient>
    <linearGradient id="goldAccent" x1="0%" y1="0%" x2="100%" y2="0%">
      <stop offset="0%" style="stop-color:#f5c842;stop-opacity:0" />
      <stop offset="20%" style="stop-color:#f5c842;stop-opacity:1" />
      <stop offset="80%" style="stop-color:#e8a020;stop-opacity:1" />
      <stop offset="100%" style="stop-color:#e8a020;stop-opacity:0" />
    </linearGradient>
    <filter id="glow">
      <feGaussianBlur stdDeviation="3" result="coloredBlur"/>
      <feMerge>
        <feMergeNode in="coloredBlur"/>
        <feMergeNode in="SourceGraphic"/>
      </feMerge>
    </filter>
  </defs>

  <rect width="1200" height="630" fill="url(#skyGrad)"/>
  <rect width="1200" height="630" fill="url(#sunGlow)"/>

  <g opacity="0.06" stroke="#f5c842" stroke-width="1">
    <line x1="0" y1="157" x2="1200" y2="157"/>
    <line x1="0" y1="315" x2="1200" y2="315"/>
    <line x1="0" y1="473" x2="1200" y2="473"/>
    <line x1="200" y1="0" x2="200" y2="630"/>
    <line x1="400" y1="0" x2="400" y2="630"/>
    <line x1="600" y1="0" x2="600" y2="630"/>
    <line x1="800" y1="0" x2="800" y2="630"/>
    <line x1="1000" y1="0" x2="1000" y2="630"/>
  </g>

  <g opacity="0.12" fill="#f5c842">
    <rect x="80" y="430" width="18" height="80" rx="2"/>
    <rect x="120" y="400" width="18" height="110" rx="2"/>
    <rect x="160" y="360" width="18" height="150" rx="2"/>
    <rect x="200" y="380" width="18" height="130" rx="2"/>
    <rect x="240" y="340" width="18" height="160" rx="2"/>
    <rect x="280" y="310" width="18" height="185" rx="2"/>
    <rect x="320" y="330" width="18" height="170" rx="2"/>
    <rect x="360" y="290" width="18" height="200" rx="2"/>
    <rect x="400" y="270" width="18" height="220" rx="2"/>
    <rect x="440" y="250" width="18" height="240" rx="2"/>
    <rect x="480" y="230" width="18" height="260" rx="2"/>
    <rect x="520" y="240" width="18" height="250" rx="2"/>
    <rect x="560" y="200" width="18" height="290" rx="2"/>
    <rect x="600" y="185" width="18" height="305" rx="2"/>
  </g>

  <polyline points="80,510 200,470 320,430 450,390 580,350 720,310 870,270 1050,240 1160,220"
    stroke="#f5c842" stroke-width="3" fill="none" opacity="0.25"/>

  <ellipse cx="600" cy="630" rx="320" ry="160" fill="none" stroke="#f5c842" stroke-width="2" opacity="0.3"/>
  <ellipse cx="600" cy="630" rx="220" ry="110" fill="none" stroke="#f5c842" stroke-width="1" opacity="0.2"/>
  <ellipse cx="600" cy="630" rx="120" ry="60" fill="#f5c842" opacity="0.18"/>

  <rect x="0" y="0" width="6" height="630" fill="url(#goldAccent)" opacity="0.8"/>
  <rect x="60" y="100" width="1080" height="2" fill="url(#goldAccent)" opacity="0.6"/>
  <rect x="60" y="525" width="1080" height="2" fill="url(#goldAccent)" opacity="0.6"/>

  <text x="72" y="80" font-family="Trebuchet MS, Arial, sans-serif" font-size="18" font-weight="700" letter-spacing="3" fill="#f5c842" opacity="0.9">BULLSIGNAL</text>
  <text x="72" y="98" font-family="Arial, sans-serif" font-size="11" letter-spacing="2" fill="#f5c842" opacity="0.5">thebusinessledger.theapurva.com</text>

  <rect x="1000" y="52" width="140" height="34" rx="17" fill="#f5c842" opacity="0.15"/>
  <rect x="1000" y="52" width="140" height="34" rx="17" fill="none" stroke="#f5c842" stroke-width="1.5" opacity="0.5"/>
  <text x="1070" y="74" font-family="Trebuchet MS, Arial, sans-serif" font-size="13" font-weight="700" letter-spacing="2" fill="#f5c842" text-anchor="middle">FRIDAY</text>

  <text x="600" y="260" 
    font-family="Georgia, Times New Roman, serif" 
    font-size="68" 
    font-weight="700"
    letter-spacing="2"
    fill="#ffffff" 
    text-anchor="middle"
    opacity="0.97">MORNING</text>

  <text x="600" y="345" 
    font-family="Georgia, Times New Roman, serif" 
    font-size="68" 
    font-weight="700"
    letter-spacing="2"
    fill="#f5c842" 
    text-anchor="middle">MARKET WATCH</text>

  <text x="600" y="410"
    font-family="Trebuchet MS, Arial, sans-serif"
    font-size="26"
    font-weight="400"
    letter-spacing="5"
    fill="#ffffff"
    text-anchor="middle"
    opacity="0.75">JUNE 26, 2026</text>

  <circle cx="540" cy="440" r="3" fill="#f5c842" opacity="0.6"/>
  <circle cx="600" cy="440" r="3" fill="#f5c842" opacity="0.6"/>
  <circle cx="660" cy="440" r="3" fill="#f5c842" opacity="0.6"/>

  <text x="600" y="490"
    font-family="Trebuchet MS, Arial, sans-serif"
    font-size="17"
    letter-spacing="3"
    fill="#f5c842"
    text-anchor="middle"
    opacity="0.8">WHAT TO WATCH IN INDIAN MARKETS TODAY</text>

  <rect x="0" y="556" width="1200" height="74" fill="#f5c842" opacity="0.08"/>
  <text x="72" y="598"
    font-family="Courier New, monospace"
    font-size="15"
    fill="#f5c842"
    opacity="0.7"
    letter-spacing="1">NIFTY 50 +0.14%  |  SENSEX +0.14%  |  AUTO +2.41%  |  IT -0.86%  |  VIX -2.54%  |  FII +384Cr  |  DII +5748Cr</text>
</svg>
